<svg width="512" height="512" viewBox="0 0 512 512" fill="none" xmlns="http://www.w3.org/2000/svg">
  <rect width="512" height="512" rx="128" fill="url(#gradient)"/>
  <rect x="96" y="128" width="320" height="256" rx="24" fill="white" fill-opacity="0.9"/>
  <rect x="128" y="160" width="256" height="32" rx="8" fill="#667eea"/>
  <rect x="128" y="208" width="64" height="48" rx="8" fill="#667eea" fill-opacity="0.2"/>
  <rect x="208" y="208" width="64" height="48" rx="8" fill="#667eea" fill-opacity="0.2"/>
  <rect x="288" y="208" width="64" height="48" rx="8" fill="#667eea" fill-opacity="0.2"/>
  <rect x="368" y="208" width="64" height="48" rx="8" fill="#667eea" fill-opacity="0.2"/>
  <rect x="128" y="272" width="64" height="48" rx="8" fill="#667eea" fill-opacity="0.2"/>
  <rect x="208" y="272" width="64" height="48" rx="8" fill="#667eea" fill-opacity="0.2"/>
  <rect x="288" y="272" width="64" height="48" rx="8" fill="#667eea" fill-opacity="0.2"/>
  <rect x="368" y="272" width="64" height="48" rx="8" fill="#667eea" fill-opacity="0.2"/>
  <rect x="128" y="336" width="64" height="48" rx="8" fill="#667eea" fill-opacity="0.2"/>
  <rect x="208" y="336" width="64" height="48" rx="8" fill="#667eea" fill-opacity="0.2"/>
  <rect x="288" y="336" width="64" height="48" rx="8" fill="#667eea" fill-opacity="0.2"/>
  <rect x="368" y="336" width="64" height="48" rx="8" fill="#667eea" fill-opacity="0.2"/>
  <defs>
    <linearGradient id="gradient" x1="0%" y1="0%" x2="100%" y2="100%">
      <stop offset="0%" style="stop-color:#667eea;stop-opacity:1" />
      <stop offset="100%" style="stop-color:#764ba2;stop-opacity:1" />
    </linearGradient>
  </defs>
</svg> 